# xmcd
#
# Track frame offsets:
#	150
#	19290
#	50771
#	73890
#	93336
#	118882
#	138992
#	161527
#	176010
#	192918
#
# Disc length: 2873 seconds
#
# Revision: 1
# Processed by: cddbd v1.5.1PL0 Copyright (c) Steve Scherf et al.
# Submitted via: dBpowerAMP V4.0
#
DISCID=920b370a
DTITLE=Danny Cowan Group - Drivin' Back To Texas
DYEAR=2003
DGENRE=Blues
TTITLE0=Backwards Shuffle
TTITLE1=When The Blues Follow You Home
TTITLE2=Drivin' Back To Texas
TTITLE3=The Whip
TTITLE4=Runnin' From The Devil
TTITLE5=I Been Mean
TTITLE6=Lonesome Heart Blues
TTITLE7=He's The Man
TTITLE8=You Got The Soul
TTITLE9=Blue Is The Color Of My Heart
EXTD=
EXTT0=
EXTT1=
EXTT2=
EXTT3=
EXTT4=
EXTT5=
EXTT6=
EXTT7=
EXTT8=
EXTT9=
PLAYORDER=
